Coordinates
version=1
nRows=21
nColumns=22
inDegrees=yes

Units are S.I. units (second, meters, Newtons, ...)
If the header above contains a line with 'inDegrees', this indicates whether rotational values are in degrees (yes) or radians (no).

endheader
time	pelvis_tilt	pelvis_list	pelvis_rotation	pelvis_tx	pelvis_ty	pelvis_tz	hip_flexion_r	hip_adduction_r	hip_rotation_r	knee_angle_r	ankle_angle_r	subtalar_angle_r	hip_flexion_l	hip_adduction_l	hip_rotation_l	knee_angle_l	ankle_angle_l	subtalar_angle_l	lumbar_extension	lumbar_bending	lumbar_rotation
      3.74000000	     -6.44995941	     -1.10529006	     -2.14121071	     -0.42551208	      0.93588091	     -0.20137488	      4.98626348	      3.41231196	     -3.11661567	    -20.44869358	     20.08918939	     -1.83206660	     28.21455983	     -2.20421157	     -2.15526725	    -22.34130251	      1.36938164	      0.59114214	     -7.51936851	     -2.42605141	      4.08209486
      3.75000000	     -6.44825782	     -1.12980653	     -2.07635523	     -0.43155766	      0.93586479	     -0.19983474	      5.34481727	      3.57864512	     -3.21987894	    -20.40497431	     20.10056027	     -2.24697902	     28.32140727	     -2.34997291	     -2.07776952	    -21.82697839	      1.23821391	      1.52645778	     -7.58726254	     -2.38316754	      3.97245288
      3.76000000	     -6.44148457	     -1.16074354	     -1.97069988	     -0.43745068	      0.93597255	     -0.19844141	      5.71012781	      3.74011230	     -3.34592713	    -20.39824069	     20.05884166	     -2.65529257	     28.40202078	     -2.48084142	     -1.96383014	    -21.31809570	      1.21431569	      2.58514817	     -7.65297090	     -2.32718268	      3.83700647
      3.77000000	     -6.42537390	     -1.19410982	     -1.82510809	     -0.44318161	      0.93621587	     -0.19720462	      6.07452837	      3.89137128	     -3.47700140	    -20.42428821	     19.95901148	     -3.05176703	     28.46073992	     -2.59273460	     -1.81465887	    -20.84491225	      1.30319004	      3.75584937	     -7.72282907	     -2.25983854	      3.67731348
      3.78000000	     -6.39588136	     -1.22215702	     -1.62840891	     -0.44872082	      0.93659695	     -0.19614505	      6.42768102	      4.01919108	     -3.64453591	    -20.47466043	     19.81856238	     -3.41205440	     28.50203124	     -2.67162320	     -1.62639809	    -20.44015802	      1.48503156	      4.97879906	     -7.79692721	     -2.19039916	      3.47630848
      3.79000000	     -6.35724583	     -1.23890551	     -1.41517403	     -0.45403038	      0.93711324	     -0.19519129	      6.75455225	      4.12538086	     -3.79290275	    -20.51510063	     19.62033653	     -3.75510554	     28.52472918	     -2.73225655	     -1.44360313	    -20.12560520	      1.79660870	      6.22599318	     -7.86208597	     -2.13256624	      3.28764497
      3.80000000	     -6.29474903	     -1.24656983	     -1.15301417	     -0.45913044	      0.93776558	     -0.19438808	      7.04581356	      4.20332758	     -3.98421878	    -20.56087661	     19.40219252	     -4.03899399	     28.53845040	     -2.75874543	     -1.22705807	    -19.95277828	      2.15248945	      7.36768431	     -7.94120877	     -2.08228221	      3.05601817
      3.81000000	     -6.20817242	     -1.24322054	     -0.85712328	     -0.46401332	      0.93854100	     -0.19369975	      7.28666166	      4.25573178	     -4.19386247	    -20.58555534	     19.16649359	     -4.26842442	     28.54863373	     -2.75807205	     -0.99476214	    -19.95555207	      2.55420312	      8.34331237	     -8.03163507	     -2.04383814	      2.80570099
      3.82000000	     -6.09984888	     -1.23644823	     -0.53877730	     -0.46866666	      0.93942138	     -0.19309347	      7.47032743	      4.29137592	     -4.43555947	    -20.57484204	     18.91876842	     -4.44836972	     28.55311950	     -2.74747639	     -0.76922051	    -20.14160251	      2.99253390	      9.07767116	     -8.12782614	     -2.00925668	      2.54658172
      3.83000000	     -5.95872724	     -1.24356789	     -0.20130912	     -0.47308782	      0.94038956	     -0.19254461	      7.57323496	      4.33220444	     -4.70583575	    -20.51047384	     18.68409091	     -4.52936211	     28.55376458	     -2.74365226	     -0.52779516	    -20.55103564	      3.42569293	      9.35789189	     -8.24174371	     -1.96291644	      2.28590487
      3.84000000	     -5.81025621	     -1.24427398	      0.12308769	     -0.47731050	      0.94140527	     -0.19198970	      7.62626017	      4.37186218	     -4.91169263	    -20.39587532	     18.43033293	     -4.61195281	     28.56005083	     -2.75512117	     -0.35902327	    -21.15683435	      3.89413748	      9.54211951	     -8.34647820	     -1.92699163	      2.04836332
      3.85000000	     -5.64606615	     -1.24984867	      0.42014690	     -0.48129482	      0.94244379	     -0.19138768	      7.61445388	      4.41763438	     -5.11121208	    -20.22357459	     18.18874494	     -4.65289913	     28.56290415	     -2.80247831	     -0.26696874	    -21.97262902	      4.37270896	      9.43746027	     -8.44474504	     -1.89970349	      1.86478621
      3.86000000	     -5.46788194	     -1.28994769	      0.69754415	     -0.48508055	      0.94347549	     -0.19075463	      7.54012060	      4.50504458	     -5.28624776	    -19.99010939	     17.94858737	     -4.66630379	     28.56048798	     -2.91036590	     -0.21090243	    -22.97783020	      4.84063957	      9.09546229	     -8.53941082	     -1.83588455	      1.70212637
      3.87000000	     -5.28375577	     -1.34949046	      0.94080848	     -0.48866036	      0.94447207	     -0.19007071	      7.41580799	      4.61558078	     -5.45396765	    -19.70253245	     17.72445164	     -4.65134759	     28.54342906	     -3.07652879	     -0.23826266	    -24.13307924	      5.22305992	      8.36784450	     -8.62019641	     -1.75953918	      1.59213521
      3.88000000	     -5.10136879	     -1.44522384	      1.12277487	     -0.49205422	      0.94540350	     -0.18927941	      7.25277566	      4.77942778	     -5.53073814	    -19.36318597	     17.51262486	     -4.57590768	     28.50792943	     -3.33626824	     -0.35412357	    -25.41321259	      5.62322577	      7.58141735	     -8.67995629	     -1.65161777	      1.54838219
      3.89000000	     -4.92062504	     -1.57068779	      1.24241061	     -0.49529934	      0.94625206	     -0.18840381	      7.07537190	      4.98426103	     -5.52950177	    -19.01461847	     17.31203747	     -4.46474321	     28.44376310	     -3.68046373	     -0.54983632	    -26.78231783	      6.00830462	      6.70420885	     -8.72529104	     -1.51577994	      1.55576292
      3.90000000	     -4.75129126	     -1.70855055	      1.29170451	     -0.49836597	      0.94700177	     -0.18746340	      6.89587591	      5.19748801	     -5.53775707	    -18.66052353	     17.17734309	     -4.31104289	     28.34004261	     -4.09630437	     -0.85122244	    -28.19297239	      6.31846262	      5.68775414	     -8.73966262	     -1.37238884	      1.65790229
      3.91000000	     -4.59629920	     -1.87669917	      1.27931121	     -0.50130696	      0.94764623	     -0.18644828	      6.71964607	      5.45223625	     -5.45617771	    -18.30081024	     17.04499192	     -4.12966303	     28.20241128	     -4.59361367	     -1.21192348	    -29.62900766	      6.63788057	      4.73961859	     -8.72883643	     -1.20028384	      1.79553147
      3.92000000	     -4.46224796	     -2.06764164	      1.20283576	     -0.50411323	      0.94818601	     -0.18537211	      6.55315554	      5.73417311	     -5.32801795	    -17.93427349	     16.92508314	     -3.93660460	     28.02601845	     -5.16031526	     -1.62552319	    -31.05592731	      6.94316134	      3.88109630	     -8.68399396	     -1.00873257	      1.99324055
      3.93000000	     -4.34233399	     -2.26770339	      1.07237906	     -0.50681301	      0.94862514	     -0.18429257	      6.41121760	      6.02211597	     -5.16242394	    -17.60175680	     16.83808418	     -3.72142690	     27.80033224	     -5.76463913	     -2.06537919	    -32.45200786	      7.24384281	      3.05306447	     -8.61973640	     -0.80300455	      2.21273092
      3.94000000	     -4.25100194	     -2.48379053	      0.89366199	     -0.50937793	      0.94897239	     -0.18319778	      6.28251440	      6.32888339	     -4.95504370	    -17.25338246	     16.72841140	     -3.53455083	     27.53807276	     -6.40872402	     -2.52558830	    -33.79753084	      7.54874079	      2.40887892	     -8.51443985	     -0.58021934	      2.45937130
